# xmcd
#
# Track frame offsets: 
#        150
#        19653
#        39755
#        55903
#        74110
#        88155
#        106960
#        125865
#        139745
#        157753
#
# Disc length: 2314 seconds
#
# Revision: 2
# Processed by: cddbd v1.5.2PL0 Copyright (c) Steve Scherf et al.
# Submitted via: ExactAudioCopy v0.99pb4
#
DISCID=8609080a
DTITLE=Lee Roy Parnell - Lee Roy Parnell
DYEAR=1990
DGENRE=Country
TTITLE0=Oughta Be A Law
TTITLE1=Fifty-fifty Love
TTITLE2=Where Is My Baby Tonight
TTITLE3=Crocodile Tears
TTITLE4=Family Tree
TTITLE5=Let's Pretend
TTITLE6=You're Taking Too Long
TTITLE7=Mexican Money
TTITLE8=Down Deep
TTITLE9=Red Hot
EXTD=
EXTT0=
EXTT1=
EXTT2=
EXTT3=
EXTT4=
EXTT5=
EXTT6=
EXTT7=
EXTT8=
EXTT9=
PLAYORDER=
